HIERARCHY
ROOT Hips
{
	OFFSET 0.00 0.00 0.00
	CHANNELS 6 Xposition Yposition Zposition Xrotation Yrotation Zrotation
	JOINT Spine
	{
		OFFSET 0.00000 5.19526 0.00000
		CHANNELS 3 Xrotation Yrotation Zrotation
		JOINT Head
		{
			OFFSET 0.00000 15.65388 0.00000
			CHANNELS 3 Xrotation Yrotation Zrotation
			End Site
			{
				OFFSET 0.00000 4.52755 0.00000
			}
		}
		JOINT LeftShoulder
		{
			OFFSET 0.00000 10.32977 0.00000
			CHANNELS 3 Xrotation Yrotation Zrotation
			JOINT LeftArm
			{
				OFFSET 6.99601 0.00000 0.00000
				CHANNELS 3 Xrotation Yrotation Zrotation
				JOINT LeftForeArm
				{
					OFFSET 10.20930 0.00000 0.00000
					CHANNELS 3 Yrotation Zrotation Xrotation
					JOINT LeftHand
					{
						OFFSET 8.56316 0.00000 0.00000
						CHANNELS 3 Xrotation Yrotation Zrotation
						JOINT LeftHandThumb1
						{
							OFFSET 0.00000 0.00000 0.00000
							CHANNELS 3 Xrotation Zrotation Yrotation
							End Site
							{
								OFFSET 0.00000 0.00000 3.93700
							}
						}
						End Site
						{
							OFFSET 3.93700 0.00000 0.00000
						}
					}
				}
			}
		}
		JOINT RightShoulder
		{
			OFFSET 0.00000 10.32977 0.00000
			CHANNELS 3 Xrotation Yrotation Zrotation
			JOINT RightArm
			{
				OFFSET -6.99601 0.00000 0.00000
				CHANNELS 3 Xrotation Yrotation Zrotation
				JOINT RightForeArm
				{
					OFFSET -10.20930 0.00000 0.00000
					CHANNELS 3 Yrotation Zrotation Xrotation
					JOINT RightHand
					{
						OFFSET -8.56316 0.00000 0.00000
						CHANNELS 3 Xrotation Yrotation Zrotation
						JOINT RightHandThumb1
						{
							OFFSET 0.00000 0.00000 0.00000
							CHANNELS 3 Xrotation Zrotation Yrotation
							End Site
							{
								OFFSET 0.00000 0.00000 3.93700
							}
						}
						End Site
						{
							OFFSET -3.93700 0.00000 0.00000
						}
					}
				}
			}
		}
	}
	JOINT LeftUpLeg
	{
		OFFSET 3.35136 0.00000 0.00000
		CHANNELS 3 Xrotation Yrotation Zrotation
		JOINT LeftLeg
		{
			OFFSET 0.00000 -16.34683 0.00000
			CHANNELS 3 Xrotation Yrotation Zrotation
			JOINT LeftFoot
			{
				OFFSET 0.00000 -13.95979 0.00000
				CHANNELS 3 Xrotation Yrotation Zrotation
				JOINT LeftToeBase
				{
					OFFSET 0.00000 -1.33694 4.98954
					CHANNELS 3 Xrotation Yrotation Zrotation
					End Site
					{
						OFFSET 0.00000 0.00000 2.95275
					}
				}
			}
		}
	}
	JOINT RightUpLeg
	{
		OFFSET -3.35136 0.00000 0.00000
		CHANNELS 3 Xrotation Yrotation Zrotation
		JOINT RightLeg
		{
			OFFSET 0.00000 -16.34683 0.00000
			CHANNELS 3 Xrotation Yrotation Zrotation
			JOINT RightFoot
			{
				OFFSET 0.00000 -13.95979 0.00000
				CHANNELS 3 Xrotation Yrotation Zrotation
				JOINT RightToeBase
				{
					OFFSET 0.00000 -1.33694 4.98954
					CHANNELS 3 Xrotation Yrotation Zrotation
					End Site
					{
						OFFSET 0.00000 0.00000 2.95275
					}
				}
			}
		}
	}
}
MOTION
Frames: 7
Frame Time: 0.008333
 -1.3352 31.8445 -6.6507 4.0583 7.1562 3.0537 -5.4279 -7.3816 -2.1662 5.7849 7.7805 -0.9675 5.4261 22.2082 25.5864 -25.2751 -14.9730 -21.7807 -1.1637 0.0000 2.5836 2.2000 12.2317 -10.2773 33.1476 -0.0000 26.2537 -11.3056 -5.9462 -37.7419 -22.1962 7.2469 33.4972 6.5411 -0.0000 23.4629 4.4223 -14.5301 17.1322 32.8623 0.0000 -24.3270 -0.3835 -0.7644 -1.5494 1.3127 0.0000 0.0000 -11.2190 26.2591 -13.5277 8.6555 -0.0000 0.0000 1.9620 -4.6312 -4.1522 -2.9298 -0.0000 -0.0000 -14.1240 -16.3478 1.8222 5.0537 0.0000 -0.0000
 -1.3372 31.8448 -6.6521 4.0519 7.1492 3.0498 -5.4234 -7.3798 -2.1646 5.8395 7.7842 -0.9574 5.4098 22.1943 25.5870 -25.2003 -15.0013 -21.7337 -1.1394 0.0000 2.5118 2.2233 12.2540 -10.3656 33.1476 -0.0000 26.2537 -11.2914 -5.9404 -37.7605 -22.2080 7.2469 33.5312 6.4932 -0.0000 23.4519 4.4202 -14.5043 17.1524 32.8623 0.0000 -24.3270 -0.3813 -0.7460 -1.5388 1.3163 -0.0000 0.0000 -11.2028 26.2365 -13.5592 8.6387 0.0000 0.0000 1.9587 -4.6318 -4.1451 -2.9167 0.0000 0.0000 -14.1274 -16.3426 1.8247 5.1021 -0.0000 0.0000
 -1.3447 31.8451 -6.6529 4.0581 7.1603 2.9946 -5.4323 -7.3961 -2.1178 5.9022 7.7919 -0.9493 5.4144 22.1951 25.5870 -25.2141 -15.0183 -21.7166 -1.1070 0.0000 2.5253 2.2164 12.2029 -10.3759 33.1476 -0.0000 26.2537 -11.2761 -5.9253 -37.7768 -22.1930 7.2431 33.5554 6.4633 -0.0000 23.4267 4.4199 -14.4873 17.1699 32.8623 0.0000 -24.3270 -0.3969 -0.7380 -1.4691 1.3311 0.0000 0.0000 -11.2302 26.2281 -13.5952 8.6602 0.0000 0.0000 2.1429 -4.1134 -4.0905 -3.2272 0.0000 0.0000 -13.9515 -16.8163 1.8199 5.1436 0.0000 -0.0000
 -1.3471 31.8450 -6.6530 4.0429 7.1563 2.9922 -5.4204 -7.3971 -2.1188 5.9546 7.7861 -0.9408 5.3942 22.1766 25.6126 -25.2044 -14.9934 -21.7096 -1.1238 0.0000 2.5369 2.2395 12.2426 -10.4493 33.1476 -0.0000 26.2537 -11.3015 -5.8964 -37.7890 -22.1378 7.2757 33.5700 6.4302 -0.0000 23.4106 4.4297 -14.4963 17.1962 32.8623 0.0000 -24.3270 -0.3836 -0.7133 -1.4586 1.3348 -0.0000 0.0000 -11.2260 26.2017 -13.6093 8.6358 0.0000 -0.0000 2.1807 -4.0391 -4.0832 -3.2636 0.0000 -0.0000 -13.9357 -16.8737 1.7894 5.0860 0.0000 -0.0000
 -1.3453 31.8450 -6.6549 4.0382 7.1661 2.9982 -5.4215 -7.4176 -2.1121 6.0137 7.7795 -0.9623 5.3962 22.1723 25.6048 -25.1791 -15.0103 -21.6881 -1.1013 0.0000 2.5413 2.2396 12.2391 -10.4524 33.1476 -0.0000 26.2537 -11.3011 -5.8624 -37.8236 -22.1530 7.2695 33.5923 6.3921 -0.0000 23.4474 4.4288 -14.3839 17.3163 32.8623 0.0000 -24.3270 -0.3849 -0.7391 -1.4684 1.3377 0.0000 0.0000 -11.2318 26.2161 -13.5957 8.6490 0.0000 -0.0000 2.1830 -4.0501 -4.0910 -3.2663 0.0000 0.0000 -13.9328 -16.8853 1.7875 5.0894 -0.0000 -0.0000
 -1.3452 31.8451 -6.6555 4.0287 7.1731 3.0005 -5.4196 -7.4277 -2.1097 6.0778 7.7635 -0.9717 5.4013 22.1638 25.6115 -25.2350 -14.9905 -21.6857 -1.1012 0.0000 2.5982 2.2616 12.2566 -10.5384 33.1476 -0.0000 26.2537 -11.2925 -5.8446 -37.8415 -22.1410 7.2905 33.5999 6.3865 -0.0000 23.4766 4.4459 -14.4753 17.2786 32.8623 0.0000 -24.3270 -0.3763 -0.7422 -1.4693 1.3334 -0.0000 -0.0000 -11.2252 26.1966 -13.5616 8.6281 -0.0000 0.0000 2.1845 -4.0821 -4.0923 -3.2543 0.0000 -0.0000 -13.9377 -16.8651 1.8221 5.1366 0.0000 0.0000
 -1.3456 31.8452 -6.6569 4.0255 7.1762 2.9997 -5.4205 -7.4344 -2.1051 6.1329 7.7648 -0.9754 5.4278 22.1743 25.5971 -25.2481 -15.0138 -21.6584 -1.1046 0.0000 2.6216 2.2704 12.2929 -10.5487 33.1476 -0.0000 26.2537 -11.2984 -5.8278 -37.8625 -22.1202 7.3202 33.6063 6.3852 -0.0000 23.5082 4.4689 -14.4235 17.4202 32.8623 0.0000 -24.3270 -0.3777 -0.7341 -1.4686 1.3367 -0.0000 0.0000 -11.2284 26.1966 -13.5674 8.6338 -0.0000 0.0000 2.1890 -4.0692 -4.0907 -3.2576 -0.0000 -0.0000 -13.9441 -16.8778 1.8197 5.1774 -0.0000 -0.0000
